<svg version="1.1" id="Layer_1" xmlns="http://www.w3.org/2000/svg" xmlns:xlink="http://www.w3.org/1999/xlink" x="0px" y="0px"
	 width="100%" viewBox="0 0 222 187" enable-background="new 0 0 222 187" xml:space="preserve">
<path fill="#FDFEFC" opacity="1.000000" stroke="none" 
	d="
M147.000000,188.000000 
	C98.000000,188.000000 49.500008,188.000000 1.000006,188.000000 
	C1.000004,125.666672 1.000004,63.333347 1.000002,1.000015 
	C74.999992,1.000010 148.999985,1.000010 222.999969,1.000005 
	C222.999985,63.333317 222.999985,125.666634 223.000000,187.999969 
	C197.833328,188.000000 172.666672,188.000000 147.000000,188.000000 
M132.851700,91.564491 
	C132.464493,91.834404 132.077271,92.104317 131.208588,91.959679 
	C129.740448,90.402832 128.272308,88.845985 126.915352,86.489677 
	C126.832993,85.964081 126.750633,85.438492 126.715294,84.103073 
	C128.903259,70.346703 135.412170,59.447716 149.290039,52.128181 
	C146.542313,52.345745 145.376572,52.350155 144.242294,52.541325 
	C131.535919,54.682899 122.801392,64.264084 119.007057,79.314087 
	C107.861671,68.629128 96.716286,57.944172 85.271362,46.972057 
	C58.922779,74.339287 31.946571,102.358398 4.970364,130.377518 
	C5.092624,130.849396 5.214885,131.321274 5.337145,131.793152 
	C9.413995,131.793152 13.512441,131.531067 17.561798,131.864731 
	C21.862827,132.219147 24.979031,130.983582 28.079128,127.782280 
	C46.158836,109.112442 64.476974,90.673462 82.723053,72.164856 
	C83.966095,70.903923 85.278297,69.711174 86.941284,68.120399 
	C90.678246,72.099739 94.071075,75.712624 96.667282,79.568268 
	C93.894951,80.102066 91.122612,80.635857 88.350281,81.169647 
	C88.363876,81.836075 88.377472,82.502502 88.391068,83.168938 
	C92.974510,83.521126 97.557945,83.873314 102.747185,84.616219 
	C114.186333,96.235840 126.348938,107.245003 136.833389,119.670197 
	C145.070419,129.431946 153.945602,134.055786 166.450363,131.069992 
	C166.916275,130.958740 167.442261,131.099167 168.144394,131.795761 
	C169.649841,134.611008 171.155289,137.426254 173.023788,140.920410 
	C175.228165,134.037308 172.189774,125.718498 167.228973,123.700409 
	C167.064514,125.220764 166.909225,126.656265 166.144073,127.840363 
	C163.399399,124.909752 160.654739,121.979141 158.612076,118.621529 
	C161.739975,116.723267 164.867859,114.825005 168.427338,112.679710 
	C168.715378,112.510918 168.988235,112.320396 169.848022,111.842339 
	C171.132294,110.559570 172.412720,109.272942 173.701508,107.994743 
	C177.686035,104.042992 181.772430,100.151329 182.176727,93.537254 
	C182.170105,93.033249 182.163467,92.529236 182.598587,91.260567 
	C182.709686,89.499611 182.820770,87.738663 183.283051,85.432037 
	C183.169083,83.963150 183.055115,82.494255 183.035309,80.329903 
	C182.901016,79.886261 182.766724,79.442619 182.703018,78.241539 
	C183.203888,77.370468 183.746048,75.718758 184.199570,75.742737 
	C194.962311,76.312035 202.549927,69.908829 210.351425,64.000931 
	C212.033051,62.727455 213.521240,61.198509 215.744308,59.209438 
	C207.137894,59.038780 188.848099,66.383430 183.524124,71.448036 
	C182.671555,72.259064 181.213715,72.433815 179.969345,72.326111 
	C179.603622,71.897057 179.237900,71.468002 178.791397,70.393463 
	C177.905899,69.467430 177.020401,68.541397 175.882324,67.053398 
	C174.427917,65.983177 172.973526,64.912949 171.185455,63.306404 
	C170.457581,62.972363 169.729691,62.638317 168.324692,61.899723 
	C160.857788,58.913929 153.339111,59.263618 145.924438,61.904804 
	C138.803146,64.441483 134.396378,69.456512 132.794708,77.435242 
	C132.809387,77.965164 132.824081,78.495094 132.425018,79.828011 
	C132.494186,82.211075 132.563339,84.594139 132.406479,87.632591 
	C132.698273,88.755753 132.990067,89.878922 132.851700,91.564491 
M7.006404,155.015167 
	C7.006404,155.015167 7.003789,154.955627 6.314058,155.198700 
	C5.263959,157.803284 4.213861,160.407852 3.025651,163.354996 
	C7.115156,161.871231 10.070758,160.798874 13.354336,160.408203 
	C14.107264,162.893478 14.860192,165.378769 15.686953,168.107758 
	C17.739164,167.551025 20.515856,166.797760 22.464382,166.269165 
	C18.696260,159.986298 12.546747,155.180588 12.985647,146.762527 
	C13.025586,145.996490 12.151773,145.182831 11.702282,144.391281 
	C11.413962,144.915497 11.125643,145.439697 10.476927,146.133865 
	C10.236964,146.271088 10.063395,146.467102 9.205265,146.792435 
	C8.451556,146.799805 7.697848,146.807190 6.636879,146.206512 
	C5.301507,145.834900 3.966134,145.463272 2.630762,145.091660 
	C2.426841,145.711838 2.222921,146.332016 2.019001,146.952194 
	C3.936553,147.661713 5.854106,148.371231 7.820424,149.761215 
	C7.760749,150.212158 7.701074,150.663101 7.186323,151.591187 
	C7.177198,152.470505 7.168072,153.349808 7.060738,154.628265 
	C7.060738,154.628265 6.947260,155.023346 7.006404,155.015167 
M107.074646,162.464966 
	C108.037079,161.628250 109.342049,160.971161 109.893806,159.919067 
	C111.224396,157.381897 108.688522,152.931183 105.545555,153.049728 
	C104.709450,153.558182 103.873337,154.066620 102.439705,154.775970 
	C101.528519,155.206406 100.617325,155.636841 98.981575,156.420700 
	C96.690369,158.490219 95.293617,160.611053 98.197495,163.331085 
	C98.951973,164.037781 99.371559,165.102005 99.188522,165.976532 
	C98.381668,168.748825 94.147644,170.921997 96.597221,173.657013 
	C100.077477,173.451981 102.523460,173.307892 104.969444,173.163803 
	C105.167931,173.688202 105.366425,174.212616 105.564919,174.737015 
	C107.268623,172.504410 108.972336,170.271790 110.676064,168.039169 
	C108.590225,167.090881 106.504524,166.142288 104.418259,165.194946 
	C104.268181,165.126785 104.113937,165.067795 104.198578,164.464935 
	C104.949959,163.909485 105.701340,163.354034 107.074646,162.464966 
M67.187012,155.644821 
	C61.111126,158.941772 59.846947,163.451508 64.507835,167.640289 
	C71.803215,168.865753 72.765526,168.058548 74.005234,160.300186 
	C78.447693,159.662018 77.519905,156.944717 75.112061,155.585129 
	C73.273720,154.547104 70.353096,155.425797 67.187012,155.644821 
M29.263706,155.227783 
	C28.292057,157.146835 27.069189,158.982544 26.399395,161.001724 
	C24.853870,165.660889 26.693472,167.914749 31.264696,167.949860 
	C28.234707,164.191620 30.737190,160.079819 31.754501,155.814560 
	C32.503300,154.403137 33.835091,152.989517 33.829830,151.580917 
	C33.824993,150.284531 32.647263,148.453156 31.483488,147.882233 
	C30.649790,147.473206 28.367649,148.434052 27.878323,149.378052 
	C27.442307,150.219208 28.558636,151.884384 29.033817,153.169647 
	C29.244316,153.738998 29.563152,154.268280 29.263706,155.227783 
M177.323090,157.145493 
	C174.654114,157.145493 171.985153,157.145493 170.240723,157.145493 
	C170.485641,161.483932 170.650116,164.397293 170.851288,167.960632 
	C171.767151,168.166656 173.414551,168.537231 174.604568,168.804916 
	C174.604568,167.089661 174.261215,165.604218 174.676300,164.374832 
	C175.530975,161.843430 176.790909,159.448868 178.634537,156.502869 
	C184.537674,157.634979 177.487640,162.384460 181.877640,164.845078 
	C183.094879,162.696869 184.575119,160.594055 185.445709,158.263504 
	C185.738647,157.479340 184.314606,155.122314 183.961395,155.181839 
	C181.910324,155.527481 179.944565,156.379395 177.323090,157.145493 
M118.140221,155.849045 
	C113.775513,157.046036 111.397743,159.809769 112.052925,164.409424 
	C112.229752,165.650803 113.645821,166.715683 114.493065,167.861572 
	C115.384872,166.945618 116.276680,166.029648 117.783989,165.465332 
	C120.263313,166.742599 122.877625,168.806168 124.704483,164.705017 
	C125.615196,162.660492 126.293022,160.512222 127.215134,158.038101 
	C124.829018,157.302536 123.801613,150.387177 118.140221,155.849045 
M140.455597,148.504868 
	C139.077591,149.046997 137.699585,149.589111 136.662079,149.997284 
	C137.648544,150.612717 139.401215,151.148590 139.460449,151.831406 
	C139.932114,157.267258 140.082458,162.730988 140.311569,167.752136 
	C141.473465,167.438385 143.128250,166.991516 144.297333,166.675827 
	C144.297333,160.979767 144.297333,155.665375 144.297333,150.744781 
	C143.161209,149.825409 142.032135,148.911758 141.676987,148.057297 
	C143.329391,146.882706 144.981796,145.708115 146.634186,144.533524 
	C144.938522,143.670135 143.039139,141.819412 141.583572,142.119720 
	C136.201889,143.230072 140.196945,145.917892 140.455597,148.504868 
M50.499825,167.662796 
	C55.637775,167.470215 59.480061,164.432083 59.528969,159.984650 
	C59.544403,158.581528 58.381252,156.482071 57.186665,155.924667 
	C55.742500,155.250809 53.691967,155.876480 51.189003,155.717560 
	C47.022594,152.952988 48.535049,148.951309 48.928288,144.884705 
	C46.265705,145.654633 43.727455,146.388626 41.436024,147.051239 
	C47.821861,152.863983 45.158302,160.363983 46.077789,167.234863 
	C47.415653,167.234863 48.684486,167.234863 50.499825,167.662796 
M134.518188,33.490524 
	C131.987808,29.239628 129.457413,24.988729 126.927032,20.737831 
	C126.402863,20.936800 125.878685,21.135767 125.354507,21.334734 
	C124.293533,27.927912 124.040947,34.490070 126.592140,41.609932 
	C127.660751,43.986279 128.347198,46.652981 129.883011,48.674362 
	C132.520081,52.145187 135.469421,51.535835 137.288605,47.581589 
	C139.623291,42.506851 137.794846,38.159569 134.518188,33.490524 
M97.722466,43.735912 
	C97.539413,43.475273 97.356369,43.214638 97.730713,43.747662 
	C97.317375,43.414955 97.678238,43.705421 98.310593,44.781971 
	C98.875351,52.291943 103.171501,57.820164 108.360199,62.635086 
	C109.469551,63.664528 112.100891,63.053825 114.031075,63.198715 
	C113.733971,60.782635 114.337845,57.423290 112.975723,56.122200 
	C108.352821,51.706463 103.034920,48.018326 97.722466,43.735912 
M126.929230,145.130234 
	C126.520073,147.532730 126.110916,149.935242 125.486855,153.599609 
	C132.184097,143.473267 137.645157,134.460312 136.984772,123.058662 
	C134.470001,124.843094 132.297440,126.930931 131.349030,129.475113 
	C129.554474,134.289154 128.462906,139.365250 126.929230,145.130234 
M206.465271,90.934517 
	C200.820053,91.414619 194.733292,89.487976 189.215591,93.540901 
	C195.280807,97.980667 213.399445,97.447815 221.005981,92.238441 
	C215.729309,91.738388 211.585709,91.345711 206.465271,90.934517 
M108.035301,109.322876 
	C102.646523,112.547432 97.257736,115.771988 91.075623,119.471268 
	C92.870445,120.271049 93.363762,120.708687 93.712036,120.613815 
	C100.264977,118.828804 106.898636,117.256744 113.285316,114.991425 
	C115.430038,114.230698 116.936928,111.671677 118.735352,109.934601 
	C118.346680,109.201660 117.958015,108.468712 117.569344,107.735764 
	C114.643082,108.172096 111.716820,108.608437 108.035301,109.322876 
M161.033279,42.283253 
	C166.841522,35.464794 162.820175,28.385178 161.509293,21.267908 
	C158.116928,27.153606 155.217636,33.148426 156.106186,40.131569 
	C156.388412,42.349655 157.535675,44.412342 161.033279,42.283253 
M193.983337,40.611656 
	C187.832901,44.760788 181.170090,48.390636 177.471603,56.038113 
	C184.135803,55.603443 194.256653,46.638321 199.066040,37.473385 
	C197.348724,38.512123 195.949097,39.358696 193.983337,40.611656 
M35.458725,164.985962 
	C36.905975,167.518066 37.638126,171.658066 40.651264,168.943375 
	C40.945381,164.336258 41.164577,160.902710 41.398716,157.235107 
	C40.224892,157.065842 38.236023,156.779053 35.802208,156.428101 
	C35.802208,159.091232 35.802208,161.720245 35.458725,164.985962 
M79.512985,158.619614 
	C81.485085,160.930161 83.659210,163.100998 85.378166,165.586594 
	C87.528717,168.696289 89.186462,167.890137 91.526428,164.896072 
	C82.998070,165.573486 89.297752,157.551849 85.338852,155.435989 
	C83.488510,156.362991 81.719002,157.249512 79.512985,158.619614 
M155.888443,163.456039 
	C156.272369,160.701096 156.656311,157.946167 157.055740,155.079895 
	C154.457687,156.402603 152.374817,157.463013 149.772324,158.787979 
	C154.645386,160.406998 148.675934,168.115906 155.766129,168.477844 
	C155.766129,166.715622 155.766129,165.470245 155.888443,163.456039 
M187.165619,115.127884 
	C185.927582,114.781387 184.689545,114.434891 183.053879,113.977104 
	C184.296143,119.611366 188.720261,122.956032 196.161514,122.960510 
	C193.349197,120.502556 190.536880,118.044601 187.165619,115.127884 
M162.209717,164.213974 
	C163.621017,161.723846 165.138870,159.278366 166.237762,156.657257 
	C166.324005,156.451569 163.489258,155.021255 162.240646,154.293335 
	C161.910599,158.148575 161.658371,161.094727 162.209717,164.213974 
M158.060822,170.194794 
	C155.564804,173.484161 158.594055,174.013092 160.988174,176.037750 
	C160.988174,171.827499 160.988174,168.563889 160.988174,165.300293 
	C160.449402,165.265533 159.910629,165.230789 159.371841,165.196030 
	C159.123642,166.795288 158.875427,168.394547 158.060822,170.194794 
M180.879593,171.809525 
	C180.709366,170.023712 180.539139,168.237915 180.291214,165.636871 
	C177.100616,170.623535 177.249969,171.930328 180.879593,171.809525 
z"/>
<path fill="#0C968F" opacity="1.000000" stroke="none" 
	d="
M126.804176,87.289139 
	C128.272308,88.845985 129.740448,90.402832 131.534164,92.465942 
	C133.376099,94.330139 134.892471,95.688080 136.552841,97.380287 
	C141.261841,102.183884 145.826843,106.653206 150.505402,111.435387 
	C151.410431,112.461662 152.201904,113.175079 153.119446,114.189034 
	C154.800385,116.009224 156.355225,117.528877 157.910065,119.048538 
	C160.654739,121.979141 163.399399,124.909752 166.602417,128.264618 
	C167.353928,129.500031 167.647095,130.311172 167.940247,131.122314 
	C167.442261,131.099167 166.916275,130.958740 166.450363,131.069992 
	C153.945602,134.055786 145.070419,129.431946 136.833389,119.670197 
	C126.348938,107.245003 114.186333,96.235840 102.346474,84.160950 
	C100.451805,82.245628 98.957848,80.785568 97.463898,79.325508 
	C94.071075,75.712624 90.678246,72.099739 86.941284,68.120399 
	C85.278297,69.711174 83.966095,70.903923 82.723053,72.164856 
	C64.476974,90.673462 46.158836,109.112442 28.079128,127.782280 
	C24.979031,130.983582 21.862827,132.219147 17.561798,131.864731 
	C13.512441,131.531067 9.413995,131.793152 5.337145,131.793152 
	C5.214885,131.321274 5.092624,130.849396 4.970364,130.377518 
	C31.946571,102.358398 58.922779,74.339287 85.271362,46.972057 
	C96.716286,57.944172 107.861671,68.629128 119.477791,79.806694 
	C121.718094,82.113182 123.487663,83.927063 125.302551,85.956345 
	C125.833313,86.544205 126.318748,86.916672 126.804176,87.289139 
z"/>
<path fill="#FCE420" opacity="1.000000" stroke="none" 
	d="
M178.872192,71.038940 
	C179.237900,71.468002 179.603622,71.897057 179.994415,72.991882 
	C180.890472,75.438087 181.761459,77.218529 182.632416,78.998970 
	C182.766724,79.442619 182.901016,79.886261 182.726807,80.913773 
	C182.278625,82.663780 182.138947,83.829903 181.565735,84.998093 
	C179.110931,84.999352 177.089661,84.998558 174.997299,84.599068 
	C174.784439,83.045753 174.671921,81.886665 174.496124,80.737259 
	C173.386887,73.484673 169.244812,69.011475 162.068710,67.522865 
	C154.692474,65.992744 147.517014,66.493111 142.219955,72.451233 
	C137.356415,77.921745 137.917221,84.367767 140.312988,90.800552 
	C138.167542,91.344460 136.491928,91.817947 134.607544,92.131088 
	C134.253494,91.656044 134.108246,91.341339 133.982117,90.681358 
	C133.544983,89.216454 133.088745,88.096825 132.632507,86.977203 
	C132.563339,84.594139 132.494186,82.211075 132.831970,79.340820 
	C133.240631,78.263893 133.242340,77.674156 133.244049,77.084412 
	C134.396378,69.456512 138.803146,64.441483 145.924438,61.904804 
	C153.339111,59.263618 160.857788,58.913929 168.749557,62.426556 
	C169.955994,63.249836 170.737549,63.546284 171.519119,63.842735 
	C172.973526,64.912949 174.427917,65.983177 175.991333,67.699020 
	C177.024307,69.242737 177.948242,70.140839 178.872192,71.038940 
z"/>
<path fill="#FDDD26" opacity="1.000000" stroke="none" 
	d="
M175.068390,84.997772 
	C177.089661,84.998558 179.110931,84.999352 181.664856,85.210007 
	C182.380508,85.687141 182.625290,85.873085 182.931854,85.977707 
	C182.820770,87.738663 182.709686,89.499611 182.178680,91.725174 
	C181.774673,92.768021 181.790604,93.346268 181.806519,93.924507 
	C181.772430,100.151329 177.686035,104.042992 173.701508,107.994743 
	C172.412720,109.272942 171.132294,110.559570 169.274506,111.997833 
	C168.465912,112.411133 168.230835,112.668938 167.995758,112.926743 
	C164.867859,114.825005 161.739975,116.723267 158.261078,118.835037 
	C156.355225,117.528877 154.800385,116.009224 153.188492,113.868629 
	C154.434662,112.369774 155.737869,111.491852 157.399551,110.452789 
	C159.319122,109.746712 160.968964,109.375130 162.426971,108.628777 
	C172.080109,103.687416 174.070251,94.597801 175.068390,84.997772 
z"/>
<path fill="#FAE529" opacity="1.000000" stroke="none" 
	d="
M125.257233,85.740952 
	C123.487663,83.927063 121.718094,82.113182 119.708015,79.987595 
	C122.801392,64.264084 131.535919,54.682899 144.242294,52.541325 
	C145.376572,52.350155 146.542313,52.345745 149.290039,52.128181 
	C135.412170,59.447716 128.903259,70.346703 126.429276,84.591682 
	C125.847923,85.300514 125.552582,85.520737 125.257233,85.740952 
z"/>
<path fill="#FCE623" opacity="1.000000" stroke="none" 
	d="
M182.667725,78.620255 
	C181.761459,77.218529 180.890472,75.438087 180.027588,73.280182 
	C181.213715,72.433815 182.671555,72.259064 183.524124,71.448036 
	C188.848099,66.383430 207.137894,59.038780 215.744308,59.209438 
	C213.521240,61.198509 212.033051,62.727455 210.351425,64.000931 
	C202.549927,69.908829 194.962311,76.312035 184.199570,75.742737 
	C183.746048,75.718758 183.203888,77.370468 182.667725,78.620255 
z"/>
<path fill="#FCE826" opacity="1.000000" stroke="none" 
	d="
M97.982506,44.052254 
	C103.034920,48.018326 108.352821,51.706463 112.975723,56.122200 
	C114.337845,57.423290 113.733971,60.782635 114.031075,63.198715 
	C112.100891,63.053825 109.469551,63.664528 108.360199,62.635086 
	C103.171501,57.820164 98.875351,52.291943 98.155899,44.398003 
	C98.001205,44.014030 97.982506,44.052254 97.982506,44.052254 
z"/>
<path fill="#FDD73C" opacity="1.000000" stroke="none" 
	d="
M127.004227,144.731354 
	C128.462906,139.365250 129.554474,134.289154 131.349030,129.475113 
	C132.297440,126.930931 134.470001,124.843094 136.984772,123.058662 
	C137.645157,134.460312 132.184097,143.473267 125.486855,153.599609 
	C126.110916,149.935242 126.520073,147.532730 127.004227,144.731354 
z"/>
<path fill="#FCE33B" opacity="1.000000" stroke="none" 
	d="
M206.953690,90.943771 
	C211.585709,91.345711 215.729309,91.738388 221.005981,92.238441 
	C213.399445,97.447815 195.280807,97.980667 189.215591,93.540901 
	C194.733292,89.487976 200.820053,91.414619 206.953690,90.943771 
z"/>
<path fill="#FDDD35" opacity="1.000000" stroke="none" 
	d="
M108.412933,109.183823 
	C111.716820,108.608437 114.643082,108.172096 117.569344,107.735764 
	C117.958015,108.468712 118.346680,109.201660 118.735352,109.934601 
	C116.936928,111.671677 115.430038,114.230698 113.285316,114.991425 
	C106.898636,117.256744 100.264977,118.828804 93.712036,120.613815 
	C93.363762,120.708687 92.870445,120.271049 91.075623,119.471268 
	C97.257736,115.771988 102.646523,112.547432 108.412933,109.183823 
z"/>
<path fill="#FDEF28" opacity="1.000000" stroke="none" 
	d="
M160.770264,42.526451 
	C157.535675,44.412342 156.388412,42.349655 156.106186,40.131569 
	C155.217636,33.148426 158.116928,27.153606 161.509293,21.267908 
	C162.820175,28.385178 166.841522,35.464794 160.770264,42.526451 
z"/>
<path fill="#FCEB1B" opacity="1.000000" stroke="none" 
	d="
M135.006363,33.958881 
	C137.794846,38.159569 139.623291,42.506851 137.288605,47.581589 
	C135.469421,51.535835 132.520081,52.145187 129.883011,48.674362 
	C128.347198,46.652981 127.660751,43.986279 126.956535,41.147968 
	C129.414322,39.188755 131.507721,37.691505 133.601120,36.194260 
	C133.989471,36.567352 134.377838,36.940449 134.766190,37.313541 
	C134.846252,36.195320 134.926315,35.077103 135.006363,33.958881 
z"/>
<path fill="#FCED31" opacity="1.000000" stroke="none" 
	d="
M194.266418,40.408463 
	C195.949097,39.358696 197.348724,38.512123 199.066040,37.473385 
	C194.256653,46.638321 184.135803,55.603443 177.471603,56.038113 
	C181.170090,48.390636 187.832901,44.760788 194.266418,40.408463 
z"/>
<path fill="#259F99" opacity="1.000000" stroke="none" 
	d="
M7.641401,151.114044 
	C7.701074,150.663101 7.760749,150.212158 7.810310,149.106934 
	C7.514844,147.906631 7.229492,147.360611 6.944139,146.814575 
	C7.697848,146.807190 8.451556,146.799805 9.834254,146.801910 
	C10.587936,146.528900 10.712629,146.246414 10.837323,145.963913 
	C11.125643,145.439697 11.413962,144.915497 11.702284,144.391281 
	C12.151773,145.182831 13.025586,145.996490 12.985647,146.762527 
	C12.546747,155.180588 18.696260,159.986298 22.464382,166.269165 
	C20.515856,166.797760 17.739164,167.551025 15.686953,168.107758 
	C14.860192,165.378769 14.107264,162.893478 13.076118,159.807922 
	C12.478619,158.737045 12.159338,158.266449 11.864891,157.450058 
	C10.473617,155.107513 9.057509,153.110779 7.641401,151.114044 
z"/>
<path fill="#FDEC0A" opacity="1.000000" stroke="none" 
	d="
M134.762268,33.724701 
	C134.926315,35.077103 134.846252,36.195320 134.766190,37.313541 
	C134.377838,36.940449 133.989471,36.567352 133.601120,36.194260 
	C131.507721,37.691505 129.414322,39.188755 127.038933,40.812157 
	C124.040947,34.490070 124.293533,27.927912 125.354507,21.334734 
	C125.878685,21.135767 126.402863,20.936800 126.927032,20.737831 
	C129.457413,24.988729 131.987808,29.239628 134.762268,33.724701 
z"/>
<path fill="#3AA7A2" opacity="1.000000" stroke="none" 
	d="
M51.903854,155.939728 
	C53.691967,155.876480 55.742500,155.250809 57.186665,155.924667 
	C58.381252,156.482071 59.544403,158.581528 59.528969,159.984650 
	C59.480061,164.432083 55.637775,167.470215 50.082928,167.136200 
	C47.298717,163.077499 49.395977,160.557312 51.529537,157.971405 
	C51.912521,157.507217 51.791935,156.627563 51.903854,155.939728 
z"/>
<path fill="#30A49E" opacity="1.000000" stroke="none" 
	d="
M140.903076,147.998108 
	C142.032135,148.911758 143.161209,149.825409 144.297333,150.744781 
	C144.297333,155.665375 144.297333,160.979767 144.297333,166.675827 
	C143.128250,166.991516 141.473465,167.438385 140.311569,167.752136 
	C140.082458,162.730988 139.932114,157.267258 139.460449,151.831406 
	C139.401215,151.148590 137.648544,150.612717 136.662079,149.997284 
	C137.699585,149.589111 139.077591,149.046997 140.710144,148.241608 
	C140.964706,147.978363 140.903076,147.998108 140.903076,147.998108 
z"/>
<path fill="#8CC7C4" opacity="1.000000" stroke="none" 
	d="
M103.961632,165.004547 
	C104.113937,165.067795 104.268181,165.126785 104.418259,165.194946 
	C106.504524,166.142288 108.590225,167.090881 110.676056,168.039185 
	C108.972336,170.271790 107.268623,172.504410 105.564919,174.737015 
	C105.366425,174.212616 105.167931,173.688202 104.969444,173.163803 
	C102.523460,173.307892 100.077477,173.451981 96.597221,173.657013 
	C94.147644,170.921997 98.381668,168.748825 99.828842,165.908875 
	C101.633316,165.562332 102.797478,165.283432 103.961632,165.004547 
z"/>
<path fill="#8AC6C3" opacity="1.000000" stroke="none" 
	d="
M118.894859,155.866928 
	C123.801613,150.387177 124.829018,157.302536 127.215134,158.038101 
	C126.293022,160.512222 125.615196,162.660492 124.704483,164.705017 
	C122.877625,168.806168 120.263313,166.742599 117.300232,164.956024 
	C117.660950,161.761932 118.505417,159.077148 119.460022,156.042221 
	C120.102936,156.241623 119.498894,156.054276 118.894859,155.866928 
z"/>
<path fill="#34A59F" opacity="1.000000" stroke="none" 
	d="
M51.546429,155.828644 
	C51.791935,156.627563 51.912521,157.507217 51.529537,157.971405 
	C49.395977,160.557312 47.298717,163.077499 49.809673,166.922241 
	C48.684486,167.234863 47.415653,167.234863 46.077789,167.234863 
	C45.158302,160.363983 47.821861,152.863983 41.436024,147.051239 
	C43.727455,146.388626 46.265705,145.654633 48.928288,144.884705 
	C48.535049,148.951309 47.022594,152.952988 51.546429,155.828644 
z"/>
<path fill="#F9D945" opacity="1.000000" stroke="none" 
	d="
M168.042328,131.459045 
	C167.647095,130.311172 167.353928,129.500031 166.907349,128.390320 
	C166.909225,126.656265 167.064514,125.220764 167.228973,123.700409 
	C172.189774,125.718498 175.228165,134.037308 173.023788,140.920410 
	C171.155289,137.426254 169.649841,134.611008 168.042328,131.459045 
z"/>
<path fill="#39A6A1" opacity="1.000000" stroke="none" 
	d="
M35.630466,164.667603 
	C35.802208,161.720245 35.802208,159.091232 35.802208,156.428101 
	C38.236023,156.779053 40.224892,157.065842 41.398716,157.235107 
	C41.164577,160.902710 40.945381,164.336258 40.651264,168.943375 
	C37.638126,171.658066 36.905975,167.518066 35.630466,164.667603 
z"/>
<path fill="#3AA7A2" opacity="1.000000" stroke="none" 
	d="
M79.731232,158.377808 
	C81.719002,157.249512 83.488510,156.362991 85.338852,155.435989 
	C89.297752,157.551849 82.998070,165.573486 91.526428,164.896072 
	C89.186462,167.890137 87.528717,168.696289 85.378166,165.586594 
	C83.659210,163.100998 81.485085,160.930161 79.731232,158.377808 
z"/>
<path fill="#8FC8C5" opacity="1.000000" stroke="none" 
	d="
M73.250732,160.306656 
	C72.765526,168.058548 71.803215,168.865753 64.360397,167.056702 
	C65.599899,163.370438 66.986847,160.267761 68.551041,157.457367 
	C70.235779,158.601959 71.743256,159.454315 73.250732,160.306656 
z"/>
<path fill="#39A6A0" opacity="1.000000" stroke="none" 
	d="
M177.884094,156.998001 
	C176.790909,159.448868 175.530975,161.843430 174.676300,164.374832 
	C174.261215,165.604218 174.604568,167.089661 174.604568,168.804916 
	C173.414551,168.537231 171.767151,168.166656 170.851288,167.960632 
	C170.650116,164.397293 170.485641,161.483932 170.240723,157.145493 
	C171.985153,157.145493 174.654114,157.145493 177.620667,157.086975 
	C177.918259,157.028458 177.884094,156.998001 177.884094,156.998001 
z"/>
<path fill="#2FA39D" opacity="1.000000" stroke="none" 
	d="
M155.827286,163.840454 
	C155.766129,165.470245 155.766129,166.715622 155.766129,168.477844 
	C148.675934,168.115906 154.645386,160.406998 149.772324,158.787979 
	C152.374817,157.463013 154.457687,156.402603 157.055740,155.079895 
	C156.656311,157.946167 156.272369,160.701096 155.827286,163.840454 
z"/>
<path fill="#FDE151" opacity="1.000000" stroke="none" 
	d="
M187.445099,115.357269 
	C190.536880,118.044601 193.349197,120.502556 196.161514,122.960510 
	C188.720261,122.956032 184.296143,119.611366 183.053879,113.977104 
	C184.689545,114.434891 185.927582,114.781387 187.445099,115.357269 
z"/>
<path fill="#30A49E" opacity="1.000000" stroke="none" 
	d="
M31.102562,156.091385 
	C30.737190,160.079819 28.234707,164.191620 31.264696,167.949860 
	C26.693472,167.914749 24.853870,165.660889 26.399395,161.001724 
	C27.069189,158.982544 28.292057,157.146835 29.814705,155.173233 
	C30.611320,155.442917 30.856939,155.767151 31.102562,156.091385 
z"/>
<path fill="#2DA29C" opacity="1.000000" stroke="none" 
	d="
M177.934113,157.044281 
	C179.944565,156.379395 181.910324,155.527481 183.961395,155.181839 
	C184.314606,155.122314 185.738647,157.479340 185.445709,158.263504 
	C184.575119,160.594055 183.094879,162.696869 181.877640,164.845078 
	C177.487640,162.384460 184.537674,157.634979 178.259308,156.750427 
	C177.884094,156.998001 177.918259,157.028458 177.934113,157.044281 
z"/>
<path fill="#1C9C96" opacity="1.000000" stroke="none" 
	d="
M118.517540,155.857986 
	C119.498894,156.054276 120.102936,156.241623 119.460022,156.042221 
	C118.505417,159.077148 117.660950,161.761932 116.992485,164.780212 
	C116.276680,166.029648 115.384872,166.945618 114.493065,167.861572 
	C113.645821,166.715683 112.229752,165.650803 112.052925,164.409424 
	C111.397743,159.809769 113.775513,157.046036 118.517540,155.857986 
z"/>
<path fill="#F4E33C" opacity="1.000000" stroke="none" 
	d="
M97.065590,79.446884 
	C98.957848,80.785568 100.451805,82.245628 102.043579,83.965591 
	C97.557945,83.873314 92.974510,83.521126 88.391068,83.168938 
	C88.377472,82.502502 88.363876,81.836075 88.350281,81.169647 
	C91.122612,80.635857 93.894951,80.102066 97.065590,79.446884 
z"/>
<path fill="#4DAFAA" opacity="1.000000" stroke="none" 
	d="
M73.627983,160.303421 
	C71.743256,159.454315 70.235779,158.601959 68.411484,157.035278 
	C68.034416,156.031235 67.974159,155.741547 67.913910,155.451874 
	C70.353096,155.425797 73.273720,154.547104 75.112061,155.585129 
	C77.519905,156.944717 78.447693,159.662018 73.627983,160.303421 
z"/>
<path fill="#86C4C1" opacity="1.000000" stroke="none" 
	d="
M31.428530,155.952972 
	C30.856939,155.767151 30.611320,155.442917 30.099255,154.967224 
	C29.563152,154.268280 29.244316,153.738998 29.033817,153.169647 
	C28.558636,151.884384 27.442307,150.219208 27.878323,149.378052 
	C28.367649,148.434052 30.649790,147.473206 31.483488,147.882233 
	C32.647263,148.453156 33.824993,150.284531 33.829830,151.580917 
	C33.835091,152.989517 32.503300,154.403137 31.428530,155.952972 
z"/>
<path fill="#27A09A" opacity="1.000000" stroke="none" 
	d="
M161.807938,164.127441 
	C161.658371,161.094727 161.910599,158.148575 162.240646,154.293335 
	C163.489258,155.021255 166.324005,156.451569 166.237762,156.657257 
	C165.138870,159.278366 163.621017,161.723846 161.807938,164.127441 
z"/>
<path fill="#239E98" opacity="1.000000" stroke="none" 
	d="
M67.550461,155.548340 
	C67.974159,155.741547 68.034416,156.031235 68.234222,156.743011 
	C66.986847,160.267761 65.599899,163.370438 64.104919,166.749084 
	C59.846947,163.451508 61.111126,158.941772 67.550461,155.548340 
z"/>
<path fill="#92C9C6" opacity="1.000000" stroke="none" 
	d="
M140.969543,148.009979 
	C140.196945,145.917892 136.201889,143.230072 141.583572,142.119720 
	C143.039139,141.819412 144.938522,143.670135 146.634186,144.533524 
	C144.981796,145.708115 143.329391,146.882706 141.290039,148.027710 
	C140.903076,147.998108 140.964706,147.978363 140.969543,148.009979 
z"/>
<path fill="#E0F0EF" opacity="1.000000" stroke="none" 
	d="
M103.037231,154.575073 
	C103.873337,154.066620 104.709450,153.558182 105.732864,153.388474 
	C106.190033,155.579620 106.459877,157.432007 106.422791,159.470749 
	C104.365158,160.794586 102.614456,161.932068 100.293129,163.440323 
	C100.200714,161.415314 100.151169,160.329697 100.385078,159.018463 
	C101.458099,157.386917 102.247658,155.980988 103.037231,154.575073 
z"/>
<path fill="#34A59F" opacity="1.000000" stroke="none" 
	d="
M100.101624,159.244095 
	C100.151169,160.329697 100.200714,161.415314 100.293129,163.440323 
	C102.614456,161.932068 104.365158,160.794586 106.414574,159.917557 
	C106.626434,161.051544 106.539581,161.925049 106.452728,162.798569 
	C105.701340,163.354034 104.949959,163.909485 104.080109,164.734741 
	C102.797478,165.283432 101.633316,165.562332 100.207062,165.921631 
	C99.371559,165.102005 98.951973,164.037781 98.197495,163.331085 
	C95.293617,160.611053 96.690369,158.490219 99.423737,156.772827 
	C99.944473,157.831345 100.023048,158.537720 100.101624,159.244095 
z"/>
<path fill="#A9D4D2" opacity="1.000000" stroke="none" 
	d="
M158.344025,170.094299 
	C158.875427,168.394547 159.123642,166.795288 159.371841,165.196030 
	C159.910629,165.230789 160.449402,165.265533 160.988174,165.300293 
	C160.988174,168.563889 160.988174,171.827499 160.988174,176.037750 
	C158.594055,174.013092 155.564804,173.484161 158.344025,170.094299 
z"/>
<path fill="#57B1AC" opacity="1.000000" stroke="none" 
	d="
M11.840055,157.795837 
	C12.159338,158.266449 12.478619,158.737045 12.912129,159.467072 
	C10.070758,160.798874 7.115156,161.871231 3.025651,163.354996 
	C4.213861,160.407852 5.263959,157.803284 6.717030,155.462982 
	C7.202968,156.738571 7.285934,157.749863 7.378872,158.882721 
	C9.102539,158.462784 10.471296,158.129318 11.840055,157.795837 
z"/>
<path fill="#3AA7A2" opacity="1.000000" stroke="none" 
	d="
M106.763687,162.631775 
	C106.539581,161.925049 106.626434,161.051544 106.721512,159.731216 
	C106.459877,157.432007 106.190033,155.579620 106.070572,153.421539 
	C108.688522,152.931183 111.224396,157.381897 109.893806,159.919067 
	C109.342049,160.971161 108.037079,161.628250 106.763687,162.631775 
z"/>
<path fill="#C8E4E3" opacity="1.000000" stroke="none" 
	d="
M11.864889,157.450043 
	C10.471296,158.129318 9.102539,158.462784 7.378872,158.882721 
	C7.285934,157.749863 7.202968,156.738571 7.061895,155.341461 
	C7.003789,154.955627 7.006404,155.015167 7.123073,154.958160 
	C7.239741,154.901138 7.444527,154.549561 7.444527,154.549561 
	C7.444527,154.549561 7.158947,154.229126 7.158947,154.229126 
	C7.168072,153.349808 7.177198,152.470505 7.413863,151.352615 
	C9.057509,153.110779 10.473617,155.107513 11.864889,157.450043 
z"/>
<path fill="#92C9C6" opacity="1.000000" stroke="none" 
	d="
M180.605591,172.018524 
	C177.249969,171.930328 177.100616,170.623535 180.291214,165.636871 
	C180.539139,168.237915 180.709366,170.023712 180.605591,172.018524 
z"/>
<path fill="#C8E4E3" opacity="1.000000" stroke="none" 
	d="
M6.790509,146.510544 
	C7.229492,147.360611 7.514844,147.906631 7.785928,148.766708 
	C5.854106,148.371231 3.936553,147.661713 2.019001,146.952194 
	C2.222921,146.332016 2.426841,145.711838 2.630762,145.091660 
	C3.966134,145.463272 5.301507,145.834900 6.790509,146.510544 
z"/>
<path fill="#C3DEC3" opacity="1.000000" stroke="none" 
	d="
M133.962997,91.026642 
	C134.108246,91.341339 134.253494,91.656044 134.682510,92.433075 
	C135.964233,94.194122 136.962173,95.492821 137.574371,96.867722 
	C136.928680,96.977959 136.668762,97.011993 136.408844,97.046021 
	C134.892471,95.688080 133.376099,94.330139 131.774902,92.673218 
	C132.077271,92.104317 132.464493,91.834404 133.236633,91.278099 
	C133.621582,90.991707 133.962997,91.026642 133.962997,91.026642 
z"/>
<path fill="#FCE623" opacity="1.000000" stroke="none" 
	d="
M183.107452,85.704872 
	C182.625290,85.873085 182.380508,85.687141 182.098389,85.207954 
	C182.138947,83.829903 182.278625,82.663780 182.679718,81.261505 
	C183.055115,82.494255 183.169083,83.963150 183.107452,85.704872 
z"/>
<path fill="#3AA7A2" opacity="1.000000" stroke="none" 
	d="
M100.385071,159.018463 
	C100.023048,158.537720 99.944473,157.831345 99.786018,156.596130 
	C100.617325,155.636841 101.528519,155.206406 102.738464,154.675522 
	C102.247658,155.980988 101.458099,157.386917 100.385071,159.018463 
z"/>
<path fill="#FCE623" opacity="1.000000" stroke="none" 
	d="
M178.831787,70.716202 
	C177.948242,70.140839 177.024307,69.242737 176.117630,67.980003 
	C177.020401,68.541397 177.905899,69.467430 178.831787,70.716202 
z"/>
<path fill="#FCE131" opacity="1.000000" stroke="none" 
	d="
M133.982117,90.681358 
	C133.962997,91.026642 133.621582,90.991707 133.451721,90.996895 
	C132.990067,89.878922 132.698273,88.755753 132.519501,87.304901 
	C133.088745,88.096825 133.544983,89.216454 133.982117,90.681358 
z"/>
<path fill="#FCE623" opacity="1.000000" stroke="none" 
	d="
M171.352295,63.574570 
	C170.737549,63.546284 169.955994,63.249836 169.088120,62.628830 
	C169.729691,62.638317 170.457581,62.972363 171.352295,63.574570 
z"/>
<path fill="#FCE623" opacity="1.000000" stroke="none" 
	d="
M181.991623,93.730881 
	C181.790604,93.346268 181.774673,92.768021 181.957794,92.107506 
	C182.163467,92.529236 182.170105,93.033249 181.991623,93.730881 
z"/>
<path fill="#FCE131" opacity="1.000000" stroke="none" 
	d="
M133.019379,77.259827 
	C133.242340,77.674156 133.240631,78.263893 133.038849,78.939331 
	C132.824081,78.495094 132.809387,77.965164 133.019379,77.259827 
z"/>
<path fill="#C3DEC3" opacity="1.000000" stroke="none" 
	d="
M125.302559,85.956352 
	C125.552582,85.520737 125.847923,85.300514 126.405762,84.996597 
	C126.750633,85.438492 126.832993,85.964081 126.859764,86.889404 
	C126.318748,86.916672 125.833313,86.544205 125.302559,85.956352 
z"/>
<path fill="#FCE826" opacity="1.000000" stroke="none" 
	d="
M98.020157,44.004959 
	C97.678238,43.705421 97.317375,43.414955 97.730713,43.747662 
	C97.356369,43.214638 97.539413,43.475273 97.852486,43.894081 
	C97.982506,44.052254 98.001205,44.014030 98.020157,44.004959 
z"/>
<path fill="#57B1AC" opacity="1.000000" stroke="none" 
	d="
M7.109842,154.428696 
	C7.158947,154.229126 7.444527,154.549561 7.444527,154.549561 
	C7.444527,154.549561 7.239741,154.901138 7.093501,154.962250 
	C6.947260,155.023346 7.060738,154.628265 7.109842,154.428696 
z"/>
<path fill="#C8E4E3" opacity="1.000000" stroke="none" 
	d="
M10.657125,146.048889 
	C10.712629,146.246414 10.587936,146.528900 10.209730,146.766647 
	C10.063395,146.467102 10.236964,146.271088 10.657125,146.048889 
z"/>
<path fill="#EDDA42" opacity="1.000000" stroke="none" 
	d="
M168.211548,112.803223 
	C168.230835,112.668938 168.465912,112.411133 168.973450,112.130737 
	C168.988235,112.320396 168.715378,112.510918 168.211548,112.803223 
z"/>
<path fill="#FEFDF2" opacity="1.000000" stroke="none" 
	d="
M136.552841,97.380287 
	C136.668762,97.011993 136.928680,96.977959 137.903564,97.048111 
	C147.976105,104.511665 160.763840,100.996284 163.650314,89.786652 
	C162.562439,90.453667 161.599060,90.756378 161.076950,91.411026 
	C157.596786,95.774529 153.108444,95.838844 148.414886,94.273788 
	C145.770981,93.392174 143.320480,91.930504 140.782852,90.730141 
	C137.917221,84.367767 137.356415,77.921745 142.219955,72.451233 
	C147.517014,66.493111 154.692474,65.992744 162.068710,67.522865 
	C169.244812,69.011475 173.386887,73.484673 174.496124,80.737259 
	C174.671921,81.886665 174.784439,83.045753 174.997299,84.599068 
	C174.070251,94.597801 172.080109,103.687416 162.426971,108.628777 
	C160.968964,109.375130 159.319122,109.746712 157.002960,110.348190 
	C154.295883,110.644005 152.343857,110.883270 150.391846,111.122536 
	C145.826843,106.653206 141.261841,102.183884 136.552841,97.380287 
M153.641953,76.168022 
	C152.829788,75.589928 152.017624,75.011826 151.205444,74.433716 
	C149.830704,77.099968 147.727936,79.647911 147.270447,82.463211 
	C146.731155,85.781975 149.081604,88.021461 153.963058,89.251717 
	C150.795227,84.540306 148.957001,80.497574 153.641953,76.168022 
z"/>
<path fill="#EDDA42" opacity="1.000000" stroke="none" 
	d="
M150.505402,111.435387 
	C152.343857,110.883270 154.295883,110.644005 156.644501,110.509338 
	C155.737869,111.491852 154.434662,112.369774 153.062408,113.568100 
	C152.201904,113.175079 151.410431,112.461662 150.505402,111.435387 
z"/>
<path fill="#FCE131" opacity="1.000000" stroke="none" 
	d="
M140.312988,90.800552 
	C143.320480,91.930504 145.770981,93.392174 148.414886,94.273788 
	C153.108444,95.838844 157.596786,95.774529 161.076950,91.411026 
	C161.599060,90.756378 162.562439,90.453667 163.650314,89.786652 
	C160.763840,100.996284 147.976105,104.511665 138.289337,96.971916 
	C136.962173,95.492821 135.964233,94.194122 134.891296,92.593430 
	C136.491928,91.817947 138.167542,91.344460 140.312988,90.800552 
z"/>
<path fill="#FCE949" opacity="1.000000" stroke="none" 
	d="
M153.381210,76.448074 
	C148.957001,80.497574 150.795227,84.540306 153.963058,89.251717 
	C149.081604,88.021461 146.731155,85.781975 147.270447,82.463211 
	C147.727936,79.647911 149.830704,77.099968 151.205444,74.433716 
	C152.017624,75.011826 152.829788,75.589928 153.381210,76.448074 
z"/>
</svg>